HIERARCHY
ROOT joint_Root
{
	OFFSET 0.0 0.0 0.0
	CHANNELS 6 Xposition Yposition Zposition Zrotation Xrotation Yrotation 
	JOINT Hips
	{
		OFFSET -17.1583 93.1646 452.98
		CHANNELS 6 Xposition Yposition Zposition Zrotation Xrotation Yrotation 
		JOINT Spine
		{
			OFFSET 15.7357 0.0 0.0
			CHANNELS 6 Xposition Yposition Zposition Zrotation Xrotation Yrotation 
			JOINT Chest
			{
				OFFSET 8.98455 -0.406207 0.0
				CHANNELS 6 Xposition Yposition Zposition Zrotation Xrotation Yrotation 
				JOINT Neck
				{
					OFFSET 16.3773 0.0 0.0
					CHANNELS 6 Xposition Yposition Zposition Zrotation Xrotation Yrotation 
					JOINT Head
					{
						OFFSET 6.45672 0.0 0.0
						CHANNELS 6 Xposition Yposition Zposition Zrotation Xrotation Yrotation 
						End Site
						{
							OFFSET 0.0 0.0 0.0
						}
					}
				}
				JOINT Shoulder_L
				{
					OFFSET 12.9942 -0.242716 4.98039
					CHANNELS 6 Xposition Yposition Zposition Zrotation Xrotation Yrotation 
					JOINT UpperArm_L
					{
						OFFSET 5.34809 0.0 0.0
						CHANNELS 6 Xposition Yposition Zposition Zrotation Xrotation Yrotation 
						JOINT LowerArm_L
						{
							OFFSET 24.3286 1.87007e-05 0.0
							CHANNELS 6 Xposition Yposition Zposition Zrotation Xrotation Yrotation 
							JOINT Hand_L
							{
								OFFSET 22.2916 0.0 0.0
								CHANNELS 6 Xposition Yposition Zposition Zrotation Xrotation Yrotation 
								End Site
								{
									OFFSET 0.0 0.0 0.0
								}
							}
						}
					}
				}
				JOINT Shoulder_R
				{
					OFFSET 12.9945 -0.242716 -4.98039
					CHANNELS 6 Xposition Yposition Zposition Zrotation Xrotation Yrotation 
					JOINT UpperArm_R
					{
						OFFSET -5.34813 0.0 0.0
						CHANNELS 6 Xposition Yposition Zposition Zrotation Xrotation Yrotation 
						JOINT LowerArm_R
						{
							OFFSET -24.3289 0.000322201 0.0
							CHANNELS 6 Xposition Yposition Zposition Zrotation Xrotation Yrotation 
							JOINT Hand_R
							{
								OFFSET -22.2915 -0.000108084 0.0
								CHANNELS 6 Xposition Yposition Zposition Zrotation Xrotation Yrotation 
								End Site
								{
									OFFSET 0.0 0.0 0.0
								}
							}
						}
					}
				}
			}
		}
		JOINT UpperLeg_L
		{
			OFFSET -2.19248 -6.46944 0.0
			CHANNELS 6 Xposition Yposition Zposition Zrotation Xrotation Yrotation 
			JOINT LowerLeg_L
			{
				OFFSET 39.0811 0.0 -1.23785e-05
				CHANNELS 6 Xposition Yposition Zposition Zrotation Xrotation Yrotation 
				JOINT Foot_L
				{
					OFFSET 40.9854 0.0 -1.26872e-05
					CHANNELS 6 Xposition Yposition Zposition Zrotation Xrotation Yrotation 
					JOINT Toes_L
					{
						OFFSET 11.7543 0.0 0.0
						CHANNELS 6 Xposition Yposition Zposition Zrotation Xrotation Yrotation 
						End Site
						{
							OFFSET 0.0 0.0 0.0
						}
					}
				}
			}
		}
		JOINT UpperLeg_R
		{
			OFFSET -2.19251 6.46944 0.0
			CHANNELS 6 Xposition Yposition Zposition Zrotation Xrotation Yrotation 
			JOINT LowerLeg_R
			{
				OFFSET -39.0811 -0.00228153 -0.0401928
				CHANNELS 6 Xposition Yposition Zposition Zrotation Xrotation Yrotation 
				JOINT Foot_R
				{
					OFFSET -40.9854 0.0 0.0
					CHANNELS 6 Xposition Yposition Zposition Zrotation Xrotation Yrotation 
					JOINT Toes_R
					{
						OFFSET -11.7543 0.0 0.0
						CHANNELS 6 Xposition Yposition Zposition Zrotation Xrotation Yrotation 
						End Site
						{
							OFFSET 0.0 0.0 0.0
						}
					}
				}
			}
		}
	}
}
MOTION
Frames:	9
Frame Time:	0.0333333
0.000000 0.000000 0.000000 0.000000 0.000000 -0.000000 163.447000 90.543500 -129.766000 89.554400 6.117110 0.740354 15.735700 0.000005 -0.000001 106.942000 85.876100 -105.943000 8.984550 -0.406207 -0.000000 0.104804 2.336040 1.995630 16.377300 -0.000001 -0.000001 6.068770 -0.207111 -2.261240 6.456720 -0.000001 -0.000000 -4.997490 -2.955300 -1.978500 12.994200 -0.242716 4.980390 -93.976400 10.405700 -68.950000 5.348090 -0.000007 -0.000001 -59.099800 -25.535800 2.876980 24.328600 0.000019 0.000005 15.152500 20.273800 -38.008500 22.291600 -0.000001 0.000005 37.794700 4.611390 14.717400 12.994500 -0.242716 -4.980390 88.249400 4.939860 -70.458300 -5.348130 -0.000001 -0.000004 -72.392100 11.926200 -19.728200 -24.328900 0.000322 -0.000009 -4.532370 -5.758300 -38.305700 -22.291500 -0.000108 -0.000004 47.220800 5.583480 -10.401200 -2.192480 -6.469440 -0.000000 178.900000 1.891920 -22.315100 39.081100 -0.000007 -0.000012 -0.001425 0.018682 4.359290 40.985400 -0.000006 -0.000013 -6.115520 11.067700 -60.562400 11.754300 -0.000000 0.000003 0.002125 0.115818 -11.880200 -2.192510 6.469440 -0.000001 -177.507000 9.510850 -169.883000 -39.081100 -0.002282 -0.040193 -0.012609 0.048159 18.307200 -40.985400 0.000008 0.000006 -0.926514 4.386950 -76.649000 -11.754300 -0.000006 -0.000006 0.000738 0.154149 -10.321700
0.000000 0.000000 0.000000 0.000000 0.000000 -0.000000 163.909000 90.157500 -126.342000 89.633200 5.497870 0.313750 15.735700 0.000005 -0.000001 108.118000 85.856800 -107.272000 8.984550 -0.406207 -0.000000 0.092197 2.519520 1.688000 16.377300 -0.000001 -0.000001 5.155280 -0.155355 -1.907090 6.456720 -0.000001 -0.000000 -5.348980 -2.842160 -1.833060 12.994200 -0.242716 4.980390 -93.959600 10.458400 -69.127100 5.348090 -0.000007 -0.000001 -59.017200 -25.224300 2.796480 24.328600 0.000019 0.000005 15.185600 20.750400 -37.455200 22.291600 -0.000001 0.000005 38.783300 4.586010 15.153800 12.994500 -0.242716 -4.980390 88.301300 4.874370 -70.759600 -5.348130 -0.000001 -0.000004 -72.710700 12.651700 -18.368200 -24.328900 0.000322 -0.000009 -3.813740 -4.879930 -38.074000 -22.291500 -0.000108 -0.000004 47.116200 5.584930 -10.479000 -2.192480 -6.469440 -0.000000 178.323000 0.975562 -22.557500 39.081100 -0.000007 -0.000012 -0.002036 0.026981 4.314010 40.985400 -0.000006 -0.000013 -6.665500 12.021200 -60.889000 11.754300 -0.000000 0.000003 0.002186 0.112971 -11.995600 -2.192510 6.469440 -0.000001 -177.901000 8.961100 -169.758000 -39.081100 -0.002282 -0.040193 -0.012995 0.041932 21.258800 -40.985400 0.000008 0.000006 -0.590337 4.061130 -76.250800 -11.754300 -0.000006 -0.000006 0.002485 0.080862 -13.293800
0.000000 0.000000 0.000000 0.000000 0.000000 -0.000000 164.417000 89.946700 -122.524000 90.219900 4.837260 -0.728031 15.735700 0.000005 -0.000001 109.809000 86.159200 -109.333000 8.984550 -0.406207 -0.000000 -0.549059 2.568090 0.963265 16.377300 -0.000001 -0.000001 4.635190 -0.062312 -1.440960 6.456720 -0.000001 -0.000000 -5.739840 -2.649940 -1.375760 12.994200 -0.242716 4.980390 -93.859600 10.254100 -69.244200 5.348090 -0.000007 -0.000001 -59.449800 -24.304900 2.921950 24.328600 0.000019 0.000005 14.334700 20.735300 -35.820000 22.291600 -0.000001 0.000005 39.208900 4.582300 15.217800 12.994500 -0.242716 -4.980390 88.339400 4.800260 -70.892200 -5.348130 -0.000001 -0.000004 -73.009800 13.769600 -16.425000 -24.328900 0.000322 -0.000009 -3.506680 -4.765340 -36.401700 -22.291500 -0.000108 -0.000004 46.338700 5.588350 -10.671300 -2.192480 -6.469440 -0.000000 178.441000 2.277310 -24.062100 39.081100 -0.000007 -0.000012 -0.008250 0.054843 8.554110 40.985400 -0.000006 -0.000013 -8.078930 9.881020 -59.942700 11.754300 -0.000000 0.000003 0.002432 0.096326 -12.670500 -2.192510 6.469440 -0.000001 -178.708000 8.349360 -170.383000 -39.081100 -0.002282 -0.040193 -0.008345 0.025568 24.510800 -40.985400 0.000008 0.000006 -0.037275 3.369690 -74.442600 -11.754300 -0.000006 -0.000006 -0.002932 -0.039825 -18.192700
0.000000 0.000000 0.000000 0.000000 0.000000 -0.000000 165.074000 89.941300 -118.477000 91.320100 4.075300 -2.077440 15.735700 0.000005 -0.000001 111.182000 86.718100 -111.263000 8.984550 -0.406207 -0.000000 -1.644330 2.377820 -0.127357 16.377300 -0.000001 -0.000001 4.496620 0.121587 -0.877534 6.456720 -0.000001 -0.000000 -6.024920 -2.318870 -0.786549 12.994200 -0.242716 4.980390 -93.921500 10.478200 -69.346800 5.348090 -0.000007 -0.000001 -59.465100 -22.974100 3.436580 24.328600 0.000019 0.000005 13.158900 20.634800 -33.560200 22.291600 -0.000001 0.000005 39.308500 4.595490 14.992100 12.994500 -0.242716 -4.980390 88.213600 5.207900 -71.037300 -5.348130 -0.000001 -0.000004 -73.314600 14.051000 -13.869800 -24.328900 0.000322 -0.000009 -2.374590 -3.611580 -33.333700 -22.291500 -0.000108 -0.000004 45.357200 5.589620 -10.740900 -2.192480 -6.469440 -0.000000 176.733000 3.838110 -27.776500 39.081100 -0.000007 -0.000012 -0.037664 0.125293 16.730900 40.985400 -0.000006 -0.000013 -0.675114 5.970540 -59.263700 11.754300 -0.000000 0.000003 0.002342 0.104074 -12.356300 -2.192510 6.469440 -0.000001 -179.902000 7.533770 -172.081000 -39.081100 -0.002282 -0.040193 0.000680 0.004802 28.665100 -40.985400 0.000008 0.000006 0.826156 2.014550 -70.896800 -11.754300 -0.000006 -0.000006 -0.021401 -0.174930 -23.722800
0.000000 0.000000 0.000000 0.000000 0.000000 -0.000000 165.785000 90.082200 -114.132000 92.567900 3.693960 -2.556970 15.735700 0.000005 -0.000001 107.419000 87.139900 -108.069000 8.984550 -0.406207 -0.000000 -2.298240 1.768930 -1.265090 16.377300 -0.000001 -0.000001 4.445090 0.310992 -0.551475 6.456720 -0.000001 -0.000000 -6.133810 -2.012040 0.002694 12.994200 -0.242716 4.980390 -93.990800 10.752300 -69.496800 5.348090 -0.000007 -0.000001 -59.912000 -21.359800 3.677720 24.328600 0.000019 0.000005 12.286000 21.467300 -30.756100 22.291600 -0.000001 0.000005 39.792400 4.601350 14.890900 12.994500 -0.242716 -4.980390 88.094400 5.581000 -71.113600 -5.348130 -0.000001 -0.000004 -73.902900 13.402500 -11.057500 -24.328900 0.000322 -0.000009 -1.580360 -2.841450 -29.072300 -22.291500 -0.000108 -0.000004 43.728100 5.595030 -11.059600 -2.192480 -6.469440 -0.000000 175.381000 6.244620 -28.049600 39.081100 -0.000007 -0.000012 0.004535 -0.011794 21.034000 40.985400 -0.000006 -0.000013 2.199600 4.003230 -58.651000 11.754300 -0.000000 0.000003 0.001890 0.124882 -11.512600 -2.192510 6.469440 -0.000001 178.579000 7.303440 -173.815000 -39.081100 -0.002282 -0.040193 0.005843 -0.003802 33.838800 -40.985400 0.000008 0.000006 1.899600 0.726542 -64.576700 -11.754300 -0.000006 -0.000006 -0.062061 -0.338417 -30.556500
0.000000 0.000000 0.000000 0.000000 0.000000 -0.000000 166.463000 90.276000 -109.675000 93.244000 4.050780 -1.838040 15.735700 0.000005 -0.000001 98.456700 87.111800 -99.375300 8.984550 -0.406207 -0.000000 -2.044450 0.927872 -1.820540 16.377300 -0.000001 -0.000001 4.178330 0.183899 -0.545941 6.456720 -0.000001 -0.000000 -6.259240 -1.873150 0.555721 12.994200 -0.242716 4.980390 -93.879400 10.630500 -69.817200 5.348090 -0.000007 -0.000001 -61.945600 -19.591900 2.841830 24.328600 0.000019 0.000005 11.241200 22.399700 -27.545300 22.291600 -0.000001 0.000005 39.825100 4.613500 14.681800 12.994500 -0.242716 -4.980390 88.164200 5.329650 -70.961800 -5.348130 -0.000001 -0.000004 -74.633300 12.215500 -8.336640 -24.328900 0.000322 -0.000009 -1.130630 -2.546360 -23.942000 -22.291500 -0.000108 -0.000004 42.089400 5.597720 -11.220100 -2.192480 -6.469440 -0.000000 174.316000 8.155480 -26.383800 39.081100 -0.000007 -0.000012 0.053121 -0.115949 24.614200 40.985400 -0.000006 -0.000013 3.081270 2.975000 -59.483500 11.754300 -0.000000 0.000003 0.000913 0.150506 -10.473000 -2.192510 6.469440 -0.000001 176.903000 8.592530 -175.469000 -39.081100 -0.002282 -0.040193 0.017851 -0.017428 39.900400 -40.985400 0.000008 0.000006 1.891460 1.043260 -55.153400 -11.754300 -0.000006 -0.000006 -0.084867 -0.405343 -33.423200
0.000000 0.000000 0.000000 0.000000 0.000000 -0.000000 167.151000 90.513000 -105.387000 93.348000 4.111720 -0.061378 15.735700 0.000005 -0.000001 92.183900 86.579300 -93.109400 8.984550 -0.406207 -0.000000 -0.926235 0.330827 -1.847400 16.377300 -0.000001 -0.000001 3.953890 0.163291 -0.752732 6.456720 -0.000001 -0.000000 -6.752110 -1.772240 0.749465 12.994200 -0.242716 4.980390 -93.747400 10.380200 -70.023400 5.348090 -0.000007 -0.000001 -65.067300 -18.521300 1.467010 24.328600 0.000019 0.000005 10.905500 23.529300 -25.762600 22.291600 -0.000001 0.000005 39.999200 4.608430 14.768600 12.994500 -0.242716 -4.980390 88.162200 5.245310 -70.659600 -5.348130 -0.000001 -0.000004 -74.372900 11.368400 -6.266780 -24.328900 0.000322 -0.000009 -0.860871 -2.687790 -17.740300 -22.291500 -0.000108 -0.000004 41.570200 5.600350 -11.364400 -2.192480 -6.469440 -0.000000 173.185000 7.719770 -22.961600 39.081100 -0.000007 -0.000012 0.129542 -0.250821 27.315000 40.985400 -0.000006 -0.000013 4.169740 3.411810 -62.298700 11.754300 -0.000000 0.000003 0.000181 0.164514 -9.904380 -2.192510 6.469440 -0.000001 175.384000 8.867440 -178.203000 -39.081100 -0.002282 -0.040193 0.071390 -0.061418 47.968200 -40.985400 0.000008 0.000006 -1.217000 1.352020 -44.407800 -11.754300 -0.000006 -0.000006 -0.022328 -0.179859 -23.926100
0.000000 0.000000 0.000000 0.000000 0.000000 -0.000000 167.835000 90.642100 -101.524000 93.249000 2.891110 2.234410 15.735700 0.000005 -0.000001 90.497900 85.779000 -91.366000 8.984550 -0.406207 -0.000000 0.677226 0.127019 -1.735720 16.377300 -0.000001 -0.000001 3.550390 0.522483 -0.920376 6.456720 -0.000001 -0.000000 -7.124670 -1.344410 0.728625 12.994200 -0.242716 4.980390 -93.754400 10.414500 -70.048500 5.348090 -0.000007 -0.000001 -67.903600 -18.200400 0.729211 24.328600 0.000019 0.000005 12.278800 24.594300 -27.605400 22.291600 -0.000001 0.000005 40.324700 4.575650 15.331400 12.994500 -0.242716 -4.980390 88.055500 5.578740 -70.748800 -5.348130 -0.000001 -0.000004 -73.409900 9.712780 -4.184260 -24.328900 0.000322 -0.000009 -0.512602 -2.339410 -12.332000 -22.291500 -0.000108 -0.000004 41.787400 5.591650 -10.859500 -2.192480 -6.469440 -0.000000 172.297000 5.286040 -18.939100 39.081100 -0.000007 -0.000012 0.222832 -0.395202 29.416400 40.985400 -0.000006 -0.000013 5.301120 4.066040 -65.759000 11.754300 -0.000000 0.000003 -0.000262 0.171927 -9.603290 -2.192510 6.469440 -0.000001 174.283000 6.650720 177.175000 -39.081100 -0.002282 -0.040193 0.186687 -0.119800 56.856700 -40.985400 0.000008 0.000006 -6.966150 -1.186330 -33.432900 -11.754300 -0.000006 -0.000006 -0.001059 0.183913 -9.112830
0.000000 0.000000 0.000000 0.000000 0.000000 -0.000000 168.391000 91.031600 -97.971000 93.164200 1.499250 3.401480 15.735700 0.000005 -0.000001 87.999000 85.328400 -88.802600 8.984550 -0.406207 -0.000000 1.569960 -0.282624 -1.601800 16.377300 -0.000001 -0.000001 3.153340 1.067120 -1.307440 6.456720 -0.000001 -0.000000 -7.320360 -0.627722 0.984503 12.994200 -0.242716 4.980390 -93.786700 10.397400 -69.860400 5.348090 -0.000007 -0.000001 -70.256900 -17.373000 0.408578 24.328600 0.000019 0.000005 15.243400 25.643800 -32.194800 22.291600 -0.000001 0.000005 40.438500 4.550330 15.760000 12.994500 -0.242716 -4.980390 88.059400 5.575390 -70.773700 -5.348130 -0.000001 -0.000004 -72.499000 7.244120 -1.841390 -24.328900 0.000322 -0.000009 -0.338105 -2.224490 -8.624320 -22.291500 -0.000108 -0.000004 42.656500 5.578260 -10.117600 -2.192480 -6.469440 -0.000000 171.843000 3.195340 -14.892900 39.081100 -0.000007 -0.000012 0.264989 -0.482011 28.800500 40.985400 -0.000006 -0.000013 6.116400 4.354390 -67.971800 11.754300 -0.000000 0.000003 -0.000575 0.176792 -9.405670 -2.192510 6.469440 -0.000001 174.168000 4.633060 172.222000 -39.081100 -0.002282 -0.040193 0.147716 -0.069919 64.186100 -40.985400 0.000008 0.000006 -5.438910 -1.830560 -36.385300 -11.754300 -0.000006 -0.000006 -0.000706 0.178812 -9.320120
